# Blender 4.1.1
# www.blender.org
mtllib gravestone.mtl
o cross_column
v -1.658730 0.580555 -1.658729
v -1.658730 -0.000000 -1.658729
v 1.658729 0.580555 -1.658730
v 1.658729 0.000000 -1.658730
v -1.658729 -0.000000 1.658730
v -1.658730 0.580555 1.658730
v 1.658730 0.000000 1.658729
v 1.658730 0.580555 1.658729
v -1.257345 0.580555 1.257345
v -1.257345 0.580555 -1.257345
v -1.119037 1.575793 1.119037
v -1.119037 1.575793 -1.119037
v 1.257345 0.580555 -1.257345
v 1.257345 0.580555 1.257345
v 1.119037 1.575793 -1.119037
v 1.119037 1.575793 1.119037
v -0.895960 1.575793 0.895960
v -0.895960 7.049601 0.895960
v 0.895960 1.575793 0.895960
v 0.895959 7.049601 0.895960
v -0.895960 7.049601 -0.895960
v -0.895960 1.575793 -0.895960
v 0.895959 7.049601 -0.895960
v 0.895959 1.575793 -0.895960
v -1.119038 7.049601 1.119037
v -1.119038 7.049601 -1.119037
v -1.119038 7.464283 1.119037
v -1.119038 7.464283 -1.119037
v 1.119037 7.049601 1.119037
v 1.119037 7.464283 1.119037
v 1.119037 7.049601 -1.119037
v 1.119037 7.464283 -1.119037
v -0.705072 8.874203 0.705071
v -0.705072 8.874203 -0.705071
v -0.391583 10.367060 0.391582
v -0.391583 10.367060 -0.391582
v -0.976597 8.210711 -0.976596
v -0.895960 7.961902 -0.895960
v 0.976595 8.210711 -0.976596
v 0.895959 7.961902 -0.895960
v 0.705070 8.874203 0.705071
v 0.391581 10.367060 0.391582
v 0.705070 8.874203 -0.705071
v 0.391581 10.367060 -0.391582
v 0.895959 7.961902 0.895960
v 0.976595 8.210711 0.976596
v -0.976596 8.210711 0.976596
v -0.895960 7.961902 0.895960
v -0.152604 10.367060 -0.152603
v 0.152602 10.367060 -0.152603
v -0.152604 10.367060 0.152603
v 0.152602 10.367060 0.152603
v -0.895960 7.464283 0.895960
v -0.895960 7.464283 -0.895960
v 0.895959 7.464283 0.895960
v 0.895959 7.464283 -0.895960
v -0.152604 11.206377 0.457809
v -0.152604 11.511582 0.457809
v 0.152602 11.206377 0.457809
v 0.152602 11.511582 0.457809
v -0.152604 11.816791 -0.152603
v 0.152602 11.816791 -0.152603
v -0.152604 11.816791 0.152603
v 0.152602 11.816791 0.152603
v -0.152604 11.206377 -0.152603
v 0.152602 11.206377 -0.152603
v -0.152604 11.511582 0.152603
v 0.152602 11.511582 0.152603
v -0.152604 11.206377 0.152603
v 0.152602 11.206377 0.152603
v -0.152604 11.511582 -0.152603
v 0.152602 11.511582 -0.152603
v -0.152604 11.511582 -0.457809
v -0.152604 11.206377 -0.457809
v 0.152602 11.511582 -0.457809
v 0.152602 11.206377 -0.457809
v -0.895960 7.961902 -0.895960
v -0.895960 7.961902 0.895960
v -0.895960 7.464283 -0.895960
v -0.705072 8.874203 -0.705071
v -0.976597 8.210711 -0.976596
v -0.895960 7.961902 -0.895960
v 0.976595 8.210711 -0.976596
v 0.895959 7.961902 -0.895960
v 0.705070 8.874203 -0.705071
vn -0.0000 -0.0000 -1.0000
vn -1.0000 -0.0000 -0.0000
vn -0.0000 -0.0000 1.0000
vn 1.0000 -0.0000 -0.0000
vn -0.6938 0.1928 0.6938
vn -0.6938 0.1928 -0.6939
vn -0.6938 0.1928 -0.6938
vn 0.6939 0.1928 -0.6938
vn 0.6938 0.1928 -0.6938
vn 0.6938 0.1928 0.6938
vn -0.7071 -0.0000 0.7071
vn -0.7071 -0.0000 -0.7071
vn 0.7071 -0.0000 0.7071
vn 0.7071 -0.0000 -0.7071
vn -0.9787 0.2055 -0.0000
vn -0.0000 0.2055 0.9787
vn -0.0000 0.2055 -0.9787
vn 0.9787 0.2055 -0.0000
vn 0.9513 -0.3083 -0.0000
vn 0.9996 0.0282 -0.0000
vn -0.0000 0.0282 0.9996
vn -0.0000 -0.3083 0.9513
vn -0.9513 -0.3083 -0.0000
vn -0.9996 0.0282 -0.0000
vn -0.0000 0.3787 0.9255
vn -0.9255 0.3787 -0.0000
vn 0.9255 0.3787 -0.0000
vn -0.0000 -1.0000 -0.0000
vn -0.0000 1.0000 -0.0000
vn -0.0000 0.0282 -0.9996
vn -0.0000 -0.3083 -0.9513
vn -1.0000 0.0003 -0.0000
vn -0.0000 0.3787 -0.9255
vt 0.036876 0.950481
vt 0.263256 0.488222
vt 0.148493 1.000000
vt 0.357341 0.486572
vt 0.361094 0.500000
vt 0.266856 0.500000
vt 0.141685 0.000000
vt 0.033390 0.051750
vt 0.141685 1.000000
vt 0.033390 0.948250
vt 0.130087 0.000000
vt 0.025058 0.053384
vt 0.589362 0.602962
vt 0.437887 0.453365
vt 0.594222 0.053264
vt 0.534055 0.564914
vt 0.295193 0.707064
vt 0.295193 -0.000000
vt 0.000103 0.000103
vt 0.165563 0.208097
vt 0.000103 0.645420
vt 0.198281 0.435039
vt 0.408054 0.201151
vt 0.327397 0.999901
vt 0.000099 0.999901
vt 0.327397 0.000099
vt 0.000099 0.000099
vt 0.654694 0.000099
vt 0.981992 0.000099
vt 0.654694 0.999901
vt 0.981992 0.999901
vt 0.000057 0.999943
vt 0.000057 0.000057
vt 0.327382 0.999943
vt 0.327382 0.000057
vt 0.718750 0.144315
vt 0.718750 0.151334
vt 0.931803 0.981166
vt 0.526109 0.563798
vt 0.960135 0.067733
vt 0.493254 0.447722
vt 0.000098 0.999902
vt 0.420806 0.555143
vt 0.000098 0.000098
vt 0.390697 0.472263
vt 0.000000 0.041284
vt 0.133909 0.000000
vt 0.000000 0.958716
vt 0.133909 1.000000
vt 0.227747 0.507015
vt 0.295193 0.508069
vt 0.198241 1.000000
vt 0.268685 0.982519
vt 0.290894 0.023520
vt 0.203461 0.000000
vt 0.030055 0.506122
vt 0.000000 0.907445
vt 0.000000 0.094532
vt 0.500950 0.139016
vt 0.500950 0.860984
vt 0.718750 0.025000
vt 0.268067 0.731933
vt 0.268067 -0.000000
vt 0.491413 0.223346
vt 1.000000 -0.000000
vt 0.491413 0.508587
vt 0.776654 0.223346
vt 1.000000 0.731932
vt 0.776654 0.508587
vt 0.000000 0.841743
vt 0.000000 0.159743
vt 0.193158 0.490250
vt 0.198978 0.500000
vt 0.000000 0.840257
vt 0.000000 0.140104
vt 0.375309 0.032499
vt 0.566554 0.484799
vt 0.400326 0.500000
vt 0.000000 0.099674
vt 0.000000 0.000000
vt 0.500000 0.500000
vt 0.000000 1.000000
vt 0.000000 0.000000
vt 0.099674 0.099674
vt 0.000000 0.900326
vt 0.000000 1.000000
vt 0.099674 0.900326
vt 0.891990 0.113089
vt 0.999896 0.000103
vt 0.917076 0.326903
vt 0.133909 0.000000
vt 0.000000 0.041284
vt 0.677249 0.097857
vt 0.594429 0.018760
vt 0.702335 0.311671
vt 0.594429 0.424657
vt 0.999896 0.406000
vt 0.093750 0.214669
vt 0.093750 0.219834
vt 0.093750 0.225000
vt 0.268067 0.737185
vt -0.000000 0.834664
vt -0.000000 0.000000
vt 0.093750 0.200463
vt 0.000000 0.071597
vt 0.257819 0.000000
vt 0.257819 1.000000
vt 0.000000 0.958716
vt 0.500950 0.139016
vt 0.500949 0.860984
s 1
usemtl Stone
f 1/1/1 3/2/1 2/3/1
f 4/4/1 2/3/1 3/2/1
f 5/5/2 6/6/2 2/7/2
f 1/8/2 2/7/2 6/6/2
f 5/5/3 7/9/3 6/6/3
f 8/10/3 6/6/3 7/9/3
f 4/4/4 3/2/4 7/11/4
f 8/12/4 7/11/4 3/2/4
f 9/13/5 11/14/5 10/15/6
f 12/16/7 10/17/6 11/18/5
f 13/19/8 15/20/9 14/21/10
f 16/22/10 14/21/10 15/20/9
f 10/15/6 12/23/7 13/19/8
f 15/20/9 13/19/8 12/23/7
f 17/24/3 19/25/3 18/26/3
f 20/27/3 18/26/3 19/25/3
f 21/28/1 23/29/1 22/30/1
f 24/31/1 22/30/1 23/29/1
f 17/24/2 18/26/2 22/30/2
f 21/28/2 22/30/2 18/26/2
f 24/32/4 23/33/4 19/34/4
f 20/35/4 19/34/4 23/33/4
f 9/13/5 14/21/10 11/14/5
f 16/22/10 11/14/5 14/21/10
f 33/38/15 35/39/15 34/40/15
f 36/41/15 34/40/15 35/39/15
f 33/38/16 41/42/16 35/39/16
f 42/43/16 35/39/16 41/42/16
f 34/40/17 36/41/17 43/44/17
f 44/45/17 43/44/17 36/41/17
f 43/44/18 44/45/18 41/42/18
f 42/43/18 41/42/18 44/45/18
f 40/46/19 39/47/20 45/48/19
f 46/49/20 45/48/19 39/47/20
f 47/50/21 48/51/22 46/52/21
f 45/53/22 46/52/21 48/51/22
f 48/51/23 47/50/24 38/54/23
f 37/55/24 38/54/23 47/50/24
f 47/50/21 46/52/21 33/56/25
f 41/57/25 33/56/25 46/52/21
f 47/50/24 33/56/26 37/55/24
f 34/58/26 37/55/24 33/56/26
f 39/47/20 43/59/27 46/49/20
f 41/60/27 46/49/20 43/59/27
f 4/61/28 7/61/28 2/61/28
f 5/61/28 2/61/28 7/61/28
f 44/62/29 36/63/29 49/64/29
f 35/65/29 49/64/29 36/63/29
f 49/64/29 50/66/29 44/62/29
f 51/67/29 49/64/29 35/65/29
f 42/68/29 44/62/29 50/66/29
f 52/69/29 51/67/29 35/65/29
f 52/69/29 42/68/29 50/66/29
f 35/65/29 42/68/29 52/69/29
f 3/2/29 1/1/29 10/70/29
f 6/6/29 10/71/29 1/8/29
f 10/70/29 13/72/29 3/2/29
f 9/73/29 10/71/29 6/6/29
f 8/12/29 3/2/29 13/72/29
f 14/74/29 9/73/29 6/6/29
f 14/75/29 8/12/29 13/72/29
f 6/6/29 8/10/29 14/74/29
f 17/76/29 22/77/29 11/18/29
f 19/78/29 17/79/29 11/80/29
f 11/18/29 22/77/29 12/16/29
f 11/80/29 16/81/29 19/78/29
f 15/82/29 12/83/29 22/84/29
f 19/78/29 16/81/29 24/85/29
f 16/81/29 15/86/29 24/85/29
f 22/84/29 24/87/29 15/82/29
f 53/88/2 48/89/2 54/90/2
f 81/91/30 83/49/30 82/92/31
f 53/88/3 55/93/3 48/89/3
f 45/94/3 48/89/3 55/93/3
f 56/95/4 40/96/4 55/93/4
f 45/94/4 55/93/4 40/96/4
f 38/97/1 40/96/1 54/90/1
f 56/95/1 54/90/1 40/96/1
f 71/99/32 73/99/2 67/99/2
f 67/99/2 73/99/2 58/99/2
f 68/99/4 60/99/4 72/99/4
f 72/99/4 60/99/4 75/99/4
f 73/99/29 71/99/29 75/99/29
f 72/99/29 75/99/29 71/99/29
f 77/105/2 79/106/2 78/107/2
f 84/108/31 82/92/31 83/49/30
f 81/91/30 80/109/33 83/49/30
f 85/110/33 83/49/30 80/109/33
usemtl Metal
f 25/36/11 27/37/11 26/36/12
f 28/37/12 26/36/12 27/37/11
f 25/36/11 29/36/13 27/37/11
f 30/37/13 27/37/11 29/36/13
f 31/36/14 32/37/14 29/36/13
f 30/37/13 29/36/13 32/37/14
f 28/37/12 32/37/14 26/36/12
f 31/36/14 26/36/12 32/37/14
f 20/36/28 23/36/28 29/36/28
f 18/36/28 20/36/28 29/36/28
f 29/36/28 23/36/28 31/36/28
f 29/36/28 25/36/28 18/36/28
f 26/36/28 31/36/28 23/36/28
f 18/36/28 25/36/28 21/36/28
f 25/36/28 26/36/28 21/36/28
f 23/36/28 21/36/28 26/36/28
f 53/37/29 54/37/29 27/37/29
f 55/37/29 53/37/29 27/37/29
f 27/37/29 54/37/29 28/37/29
f 27/37/29 30/37/29 55/37/29
f 32/37/29 28/37/29 54/37/29
f 55/37/29 30/37/29 56/37/29
f 30/37/29 32/37/29 56/37/29
f 54/37/29 56/37/29 32/37/29
f 57/98/3 59/98/3 58/99/3
f 60/99/3 58/99/3 59/98/3
f 61/100/29 63/100/29 62/100/29
f 64/100/29 62/100/29 63/100/29
f 65/101/1 66/102/1 49/103/1
f 50/104/1 49/104/1 66/98/1
f 67/99/29 58/99/29 68/99/29
f 60/99/29 68/99/29 58/99/29
f 51/104/3 52/104/3 69/98/3
f 70/98/3 69/98/3 52/104/3
f 70/98/28 59/98/28 69/98/28
f 57/98/28 69/98/28 59/98/28
f 67/99/3 68/99/3 63/100/3
f 64/100/3 63/100/3 68/99/3
f 61/100/1 62/100/1 71/99/1
f 72/99/1 71/99/1 62/100/1
f 61/100/2 71/99/32 63/100/2
f 67/99/2 63/100/2 71/99/32
f 73/99/2 74/98/2 58/99/2
f 74/98/2 65/98/2 58/99/2
f 65/98/2 69/98/2 58/99/2
f 57/98/2 58/99/2 69/98/2
f 65/98/2 49/104/2 69/98/2
f 51/104/2 69/98/2 49/104/2
f 64/100/4 68/99/4 62/100/4
f 72/99/4 62/100/4 68/99/4
f 60/99/4 59/98/4 75/99/4
f 59/98/4 70/98/4 75/99/4
f 70/98/4 66/98/4 75/99/4
f 76/98/4 75/99/4 66/98/4
f 70/98/4 52/104/4 66/98/4
f 50/104/4 66/98/4 52/104/4
f 73/99/1 75/99/1 74/98/1
f 76/98/1 74/98/1 75/99/1
f 76/98/28 66/98/28 74/98/28
f 65/98/28 74/98/28 66/98/28
